<svg width="12" height="12" viewBox="0 0 12 12" fill="none" xmlns="http://www.w3.org/2000/svg">
<g clip-path="url(#clip0_399_11418)">
<path d="M2.48438 0H1.78125C1.19967 0 0.726562 0.473109 0.726562 1.05469V3.16406C0.726562 3.74564 1.19967 4.21875 1.78125 4.21875H2.48438C3.06595 4.21875 3.53906 3.74564 3.53906 3.16406C3.53906 2.46094 3.53906 1.8753 3.53906 1.05469C3.53906 0.473109 3.06595 0 2.48438 0Z" fill="#6B7280"/>
<path d="M6.98993 2.46094H7.75781V1.75781H6.98993C6.84431 1.34948 6.45773 1.05469 6 1.05469C5.54227 1.05469 5.15569 1.34948 5.01007 1.75781H4.24219V2.46094H5.01007C5.11629 2.75878 5.35059 2.99309 5.64844 3.0993V5.67188C5.06686 5.67188 4.59375 6.14498 4.59375 6.72656V7.42969C4.59375 8.01127 5.06686 8.48438 5.64844 8.48438V9.53906H4.24219V10.2422H7.75781V9.53906H6.35156V8.48438C6.93314 8.48438 7.40625 8.01127 7.40625 7.42969V6.72656C7.40625 6.14498 6.93314 5.67188 6.35156 5.67188V3.0993C6.64941 2.99309 6.88371 2.75878 6.98993 2.46094Z" fill="#6B7280"/>
<path d="M10.2188 0H9.51562C8.93405 0 8.46094 0.473109 8.46094 1.05469C8.46094 1.7951 8.46094 2.433 8.46094 3.16406C8.46094 3.74564 8.93405 4.21875 9.51562 4.21875H10.2188C10.8003 4.21875 11.2734 3.74564 11.2734 3.16406V1.05469C11.2734 0.473109 10.8003 0 10.2188 0Z" fill="#6B7280"/>
<path d="M10.2188 7.78125H9.51562C8.93405 7.78125 8.46094 8.25436 8.46094 8.83594C8.46094 9.57635 8.46094 10.2143 8.46094 10.9453C8.46094 11.5269 8.93405 12 9.51562 12H10.2188C10.8003 12 11.2734 11.5269 11.2734 10.9453V8.83594C11.2734 8.25436 10.8003 7.78125 10.2188 7.78125Z" fill="#6B7280"/>
<path d="M2.48438 7.78125H1.78125C1.19967 7.78125 0.726562 8.25436 0.726562 8.83594V10.9453C0.726562 11.5269 1.19967 12 1.78125 12H2.48438C3.06595 12 3.53906 11.5269 3.53906 10.9453C3.53906 10.2422 3.53906 9.65655 3.53906 8.83594C3.53906 8.25436 3.06595 7.78125 2.48438 7.78125Z" fill="#6B7280"/>
</g>
<defs>
<clipPath id="clip0_399_11418">
<rect width="12" height="12" fill="white"/>
</clipPath>
</defs>
</svg>
