<svg width="20" height="20" viewBox="0 0 20 20" fill="none" xmlns="http://www.w3.org/2000/svg">
<path d="M8.67775 16.6815C8.6754 16.6815 8.67267 16.6815 8.67033 16.6815C8.57345 16.6795 8.48204 16.6381 8.41642 16.567L1.71876 9.2842C1.60392 9.1592 1.59337 8.97092 1.69376 8.83381C1.79415 8.69709 1.97697 8.65021 2.13087 8.72209L8.26095 11.5924C8.31251 11.6166 8.37345 11.6049 8.4129 11.5639L17.7637 1.79084C17.8902 1.65842 18.0973 1.64396 18.241 1.75803C18.3848 1.87209 18.418 2.07678 18.3176 2.23029L9.01603 16.4795C9.00275 16.5002 8.98712 16.519 8.96993 16.5365L8.92892 16.5776C8.86212 16.644 8.7715 16.6815 8.67775 16.6815Z" fill="#6B7280"/>
</svg>
