<svg width="16" height="16" viewBox="0 0 16 16" fill="none" xmlns="http://www.w3.org/2000/svg">
<path d="M8.00002 0.25C5.76837 0.25 3.95279 2.06559 3.95279 4.29723C3.95279 6.52887 5.76837 8.34445 8.00002 8.34445C10.2317 8.34445 12.0472 6.52887 12.0472 4.29723C12.0472 2.06559 10.2317 0.25 8.00002 0.25Z" fill="black"/>
<path d="M8 8.59766L7.08264 9.4071L7.51048 12.83L8 13.4011L8.48951 12.83L8.91735 9.4071L8 8.59766Z" fill="black"/>
<path d="M13.468 7.61672C13.2811 7.39969 13.0575 7.22288 12.8105 7.0918C12.261 8.03369 11.443 8.80064 10.4619 9.28666L9.93882 13.4712L7.99999 15.7331L6.06117 13.4711L5.53812 9.28666C4.55707 8.80064 3.73902 8.03369 3.18951 7.0918C2.94248 7.22283 2.71892 7.39964 2.53194 7.61672C2.09883 8.11949 1.9069 8.7844 2.00519 9.44091L3.06774 15.4217C3.08691 15.5457 3.11621 15.6656 3.15354 15.7812H12.8464C12.8838 15.6655 12.9131 15.5457 12.9322 15.4217L13.9915 9.46125L13.9948 9.44091C14.0931 8.78435 13.9011 8.11949 13.468 7.61672Z" fill="black"/>
</svg>
