<svg width="16" height="16" viewBox="0 0 16 16" fill="none" xmlns="http://www.w3.org/2000/svg">
<g clip-path="url(#clip0_613_15208)">
<path d="M8 0.5C3.865 0.5 0.5 3.865 0.5 8C0.5 12.135 3.865 15.5 8 15.5C12.135 15.5 15.5 12.135 15.5 8C15.5 3.865 12.135 0.5 8 0.5ZM8 14.295C4.53 14.295 1.705 11.47 1.705 8C1.705 4.53 4.53 1.705 8 1.705C11.47 1.705 14.295 4.53 14.295 8C14.295 11.47 11.47 14.295 8 14.295Z" fill="#6B7280"/>
<path d="M10.4749 7.74996H8.83238C8.74988 7.46996 8.52988 7.24996 8.24988 7.16746V4.27246C8.24988 4.13496 8.13738 4.02246 7.99988 4.02246C7.86238 4.02246 7.74988 4.13496 7.74988 4.27246V7.16746C7.38988 7.27496 7.12988 7.60746 7.12988 7.99996C7.12988 8.47996 7.51988 8.86996 7.99988 8.86996C8.39238 8.86996 8.72488 8.60996 8.83238 8.24996H10.4749C10.6124 8.24996 10.7249 8.13746 10.7249 7.99996C10.7249 7.86246 10.6124 7.74996 10.4749 7.74996Z" fill="#6B7280"/>
<path d="M8 3.34598C8.138 3.34598 8.25 3.23398 8.25 3.09598V2.86523C8.25 2.72723 8.138 2.61523 8 2.61523C7.862 2.61523 7.75 2.72723 7.75 2.86523V3.09598C7.75 3.23398 7.862 3.34598 8 3.34598Z" fill="#6B7280"/>
<path d="M8 12.6538C7.862 12.6538 7.75 12.7658 7.75 12.9038V13.1346C7.75 13.2726 7.862 13.3846 8 13.3846C8.138 13.3846 8.25 13.2726 8.25 13.1346V12.9038C8.25 12.7658 8.138 12.6538 8 12.6538Z" fill="#6B7280"/>
<path d="M12.9038 8.25H13.1346C13.2726 8.25 13.3846 8.138 13.3846 8C13.3846 7.862 13.2726 7.75 13.1346 7.75H12.9038C12.7658 7.75 12.6538 7.862 12.6538 8C12.6538 8.138 12.7658 8.25 12.9038 8.25Z" fill="#6B7280"/>
<path d="M3.09598 7.75H2.86523C2.72723 7.75 2.61523 7.862 2.61523 8C2.61523 8.138 2.72723 8.25 2.86523 8.25H3.09598C3.23398 8.25 3.34598 8.138 3.34598 8C3.34598 7.862 3.23398 7.75 3.09598 7.75Z" fill="#6B7280"/>
</g>
<defs>
<clipPath id="clip0_613_15208">
<rect width="16" height="16" fill="white"/>
</clipPath>
</defs>
</svg>
