<svg width="16" height="16" viewBox="0 0 16 16" fill="none" xmlns="http://www.w3.org/2000/svg">
<path d="M11.1533 9.55713V2.57813C11.1533 1.75113 10.4803 1.07812 9.65332 1.07812H2.67432C1.84732 1.07812 1.17432 1.75113 1.17432 2.57813V9.55713C1.17432 10.3841 1.84732 11.0571 2.67432 11.0571H9.65332C10.4803 11.0571 11.1533 10.3841 11.1533 9.55713ZM2.17432 9.55713V2.57813C2.17432 2.30246 2.39865 2.07813 2.67432 2.07813H9.65332C9.92898 2.07813 10.1533 2.30246 10.1533 2.57813V9.55713C10.1533 9.83279 9.92898 10.0571 9.65332 10.0571H2.67432C2.39865 10.0571 2.17432 9.83279 2.17432 9.55713ZM13.3256 4.94246H12.1103C11.8343 4.94246 11.6103 5.16613 11.6103 5.44246C11.6103 5.71879 11.8343 5.94246 12.1103 5.94246H13.3256C13.6013 5.94246 13.8256 6.16679 13.8256 6.44246V13.4215C13.8256 13.6971 13.6013 13.9215 13.3256 13.9215H6.34698C6.07132 13.9215 5.84698 13.6971 5.84698 13.4215V12.0391C5.84698 11.7631 5.62332 11.5391 5.34698 11.5391C5.07065 11.5391 4.84698 11.7631 4.84698 12.0391V13.4215C4.84698 14.2485 5.51998 14.9215 6.34698 14.9215H13.3256C14.1526 14.9215 14.8256 14.2485 14.8256 13.4215V6.44246C14.8256 5.61546 14.1526 4.94246 13.3256 4.94246Z" fill="black"/>
</svg>
