<svg width="16" height="16" viewBox="0 0 16 16" fill="none" xmlns="http://www.w3.org/2000/svg">
<g clip-path="url(#clip0_519_9840)">
<path d="M14.94 4.6665H11.3334V1.05984L14.94 4.6665ZM15.3334 5.99984V11.9998C15.3334 12.4376 15.2472 12.871 15.0796 13.2754C14.9121 13.6799 14.6666 14.0473 14.3571 14.3569C14.0475 14.6664 13.6801 14.9119 13.2757 15.0794C12.8712 15.247 12.4378 15.3332 12 15.3332H6.00005C4.82774 15.3311 3.68878 14.9428 2.7593 14.2284C1.82983 13.514 1.16164 12.5132 0.858068 11.3809C0.554497 10.2486 0.632461 9.0478 1.0799 7.96424C1.52734 6.88068 2.31933 5.97473 3.33338 5.3865V3.99984C3.33338 3.11578 3.68457 2.26794 4.30969 1.64281C4.93481 1.01769 5.78266 0.666504 6.66671 0.666504H10V4.6665C10 5.02013 10.1405 5.35926 10.3906 5.60931C10.6406 5.85936 10.9798 5.99984 11.3334 5.99984H15.3334ZM6.00005 13.9998C6.79117 13.9998 7.56453 13.7652 8.22233 13.3257C8.88013 12.8862 9.39281 12.2615 9.69557 11.5306C9.99832 10.7997 10.0775 9.9954 9.92319 9.21948C9.76885 8.44355 9.38788 7.73082 8.82847 7.17141C8.26906 6.612 7.55633 6.23104 6.78041 6.0767C6.00448 5.92236 5.20022 6.00157 4.46931 6.30432C3.73841 6.60707 3.11369 7.11976 2.67417 7.77756C2.23464 8.43535 2.00005 9.20871 2.00005 9.99984C2.00005 11.0607 2.42147 12.0781 3.17162 12.8283C3.92177 13.5784 4.93918 13.9998 6.00005 13.9998ZM7.00005 8.33317C7.00005 8.13539 6.9414 7.94205 6.83152 7.7776C6.72164 7.61315 6.56546 7.48498 6.38273 7.40929C6.2 7.3336 5.99894 7.3138 5.80496 7.35239C5.61098 7.39097 5.43279 7.48621 5.29294 7.62606C5.15309 7.76592 5.05785 7.9441 5.01926 8.13808C4.98068 8.33206 5.00048 8.53313 5.07617 8.71585C5.15185 8.89858 5.28003 9.05476 5.44448 9.16464C5.60893 9.27452 5.80227 9.33317 6.00005 9.33317C6.26526 9.33317 6.51962 9.22781 6.70715 9.04028C6.89469 8.85274 7.00005 8.59839 7.00005 8.33317ZM6.66671 11.9998V10.6665C6.66671 10.4897 6.59648 10.3201 6.47145 10.1951C6.34643 10.0701 6.17686 9.99984 6.00005 9.99984C5.82324 9.99984 5.65367 10.0701 5.52864 10.1951C5.40362 10.3201 5.33338 10.4897 5.33338 10.6665V11.9998C5.33338 12.1766 5.40362 12.3462 5.52864 12.4712C5.65367 12.5963 5.82324 12.6665 6.00005 12.6665C6.17686 12.6665 6.34643 12.5963 6.47145 12.4712C6.59648 12.3462 6.66671 12.1766 6.66671 11.9998Z" fill="#6B7280"/>
</g>
<defs>
<clipPath id="clip0_519_9840">
<rect width="16" height="16" fill="white"/>
</clipPath>
</defs>
</svg>
