<svg width="16" height="16" viewBox="0 0 16 16" fill="none" xmlns="http://www.w3.org/2000/svg">
<path d="M2.6525 2H13.3475C13.619 2.00021 13.8846 2.07923 14.1121 2.22746C14.3396 2.37569 14.5191 2.58676 14.629 2.83505C14.7388 3.08334 14.7743 3.35818 14.7309 3.62621C14.6876 3.89424 14.5675 4.14394 14.385 4.345L9.75 9.4425V14.25C9.74996 14.344 9.72344 14.436 9.67347 14.5156C9.62351 14.5952 9.55212 14.6591 9.4675 14.7C9.39988 14.7333 9.32541 14.7505 9.25 14.75C9.13636 14.7499 9.02614 14.7111 8.9375 14.64L8 13.89L6.4375 12.64C6.37904 12.5932 6.33183 12.5338 6.29938 12.4663C6.26692 12.3988 6.25005 12.3249 6.25 12.25V9.4425L1.615 4.345C1.43255 4.14394 1.31237 3.89424 1.26906 3.62621C1.22576 3.35818 1.26118 3.08334 1.37103 2.83505C1.48088 2.58676 1.66044 2.37569 1.88791 2.22746C2.11539 2.07923 2.381 2.00021 2.6525 2Z" fill="#6B7280"/>
</svg>
