<svg width="20" height="20" viewBox="0 0 20 20" fill="none" xmlns="http://www.w3.org/2000/svg">
<path fill-rule="evenodd" clip-rule="evenodd" d="M18.7502 14.9998C18.7502 12.8148 16.9768 11.0415 14.7918 11.0415C12.6068 11.0415 10.8335 12.8148 10.8335 14.9998C10.8335 17.1848 12.6068 18.9582 14.7918 18.9582C16.9768 18.9582 18.7502 17.1848 18.7502 14.9998ZM14.1668 13.3332V14.9998C14.1668 15.2365 14.301 15.4532 14.5127 15.559L15.346 15.9757C15.6552 16.1298 16.0302 16.0048 16.1852 15.6957C16.3393 15.3873 16.2135 15.0115 15.9052 14.8573L15.4168 14.6132V13.3332C15.4168 12.9882 15.1368 12.7082 14.7918 12.7082C14.4468 12.7082 14.1668 12.9882 14.1668 13.3332Z" fill="black"/>
<path fill-rule="evenodd" clip-rule="evenodd" d="M12.0917 18.9582C10.8292 18.0948 10 16.6432 10 14.9998C10 12.3548 12.1467 10.2082 14.7917 10.2082C14.8617 10.2082 14.9308 10.2098 15 10.2123V6.2015C15 5.79067 14.8267 5.399 14.5225 5.12234C13.6967 4.3715 11.2292 2.129 10.4508 1.42067C10.1817 1.1765 9.8325 1.0415 9.46917 1.0415C8.48417 1.0415 5.46333 1.0415 3.54167 1.0415C2.93417 1.0415 2.35083 1.28317 1.92083 1.71234C1.49167 2.14234 1.25 2.72567 1.25 3.33317V16.6665C1.25 17.274 1.49167 17.8573 1.92083 18.2873C2.35083 18.7165 2.93417 18.9582 3.54167 18.9582H12.0917ZM3.95833 13.5415H7.29167C7.63667 13.5415 7.91667 13.2615 7.91667 12.9165C7.91667 12.5715 7.63667 12.2915 7.29167 12.2915H3.95833C3.61333 12.2915 3.33333 12.5715 3.33333 12.9165C3.33333 13.2615 3.61333 13.5415 3.95833 13.5415ZM3.95833 10.6248H9.375C9.72 10.6248 10 10.3448 10 9.99984C10 9.65484 9.72 9.37484 9.375 9.37484H3.95833C3.61333 9.37484 3.33333 9.65484 3.33333 9.99984C3.33333 10.3448 3.61333 10.6248 3.95833 10.6248ZM3.95833 7.70817H6.875C7.22 7.70817 7.5 7.42817 7.5 7.08317C7.5 6.73817 7.22 6.45817 6.875 6.45817H3.95833C3.61333 6.45817 3.33333 6.73817 3.33333 7.08317C3.33333 7.42817 3.61333 7.70817 3.95833 7.70817ZM9.375 2.14817C9.46167 2.184 9.5425 2.23567 9.61333 2.29984C10.3925 3.00817 12.8592 5.25067 13.6858 6.0015C13.7633 6.07317 13.8267 6.15734 13.8725 6.24984H9.79167C9.56167 6.24984 9.375 6.06317 9.375 5.83317V2.14817Z" fill="black"/>
</svg>
