<svg width="44" height="24" viewBox="0 0 44 24" fill="none" xmlns="http://www.w3.org/2000/svg">
<path d="M43.725 11.1489L43.7242 11.148L38.8256 6.273C38.4586 5.90779 37.865 5.90915 37.4997 6.27618C37.1344 6.64317 37.1359 7.23675 37.5028 7.602L40.7918 10.875H0.9375C0.419719 10.875 0 11.2947 0 11.8125C0 12.3303 0.419719 12.75 0.9375 12.75H40.7917L37.5029 16.023C37.1359 16.3882 37.1345 16.9818 37.4998 17.3488C37.8651 17.7159 38.4587 17.7172 38.8256 17.352L43.7242 12.477L43.7251 12.4761C44.0923 12.1096 44.0911 11.5141 43.725 11.1489Z" fill="black"/>
</svg>
