<svg fill="none" xmlns="http://www.w3.org/2000/svg" viewBox="0 0 24 24"><path fill-rule="evenodd" clip-rule="evenodd" d="M6.386 8.57a.75.75 0 0 1 1.044-.184L12 11.585l4.57-3.2a.75.75 0 0 1 .86 1.23l-5 3.5a.75.75 0 0 1-.86 0l-5-3.5a.75.75 0 0 1-.184-1.045Z" fill="#000"/><path fill-rule="evenodd" clip-rule="evenodd" d="M4 5.75c-.69 0-1.25.56-1.25 1.25v10c0 .69.56 1.25 1.25 1.25h16c.69 0 1.25-.56 1.25-1.25V7c0-.69-.56-1.25-1.25-1.25H4ZM1.25 7A2.75 2.75 0 0 1 4 4.25h16A2.75 2.75 0 0 1 22.75 7v10A2.75 2.75 0 0 1 20 19.75H4A2.75 2.75 0 0 1 1.25 17V7Z" fill="#000"/></svg>
