<svg fill="none" xmlns="http://www.w3.org/2000/svg" viewBox="0 0 24 24">
  <path d="m19.18 7.132-4.206-4.306c-.513-.513-1.23-.82-2.05-.82H6.871C5.333 1.903 4 3.236 4 4.774v14.355a2.866 2.866 0 0 0 2.872 2.87h10.256A2.866 2.866 0 0 0 20 19.13V9.08c0-.718-.308-1.436-.82-1.95ZM8.923 10.106H12c.41 0 .82.308.82.82 0 .513-.307.82-.82.82H8.923a.808.808 0 0 1-.82-.82c0-.512.41-.82.82-.82Zm6.154 5.742H8.923a.808.808 0 0 1-.82-.82c0-.513.307-.82.82-.82h6.154c.41 0 .82.307.82.82 0 .512-.41.82-.82.82Z" fill="#E20A17"/>
</svg>
