<svg width="16" height="16" viewBox="0 0 16 16" fill="none" xmlns="http://www.w3.org/2000/svg">
<g clip-path="url(#clip0_780_12803)">
<path d="M13.3339 14.4H12.7125V12.3787C12.7132 11.6847 12.5419 11.0014 12.2138 10.3899C11.8857 9.77841 11.4111 9.2578 10.8325 8.87467L9.51252 8L10.8325 7.12533C11.4111 6.7422 11.8857 6.22159 12.2138 5.61009C12.5419 4.99859 12.7132 4.31529 12.7125 3.62133V1.6H13.3339C13.546 1.6 13.7495 1.51571 13.8995 1.36569C14.0496 1.21566 14.1339 1.01217 14.1339 0.8C14.1339 0.587827 14.0496 0.384344 13.8995 0.234315C13.7495 0.0842855 13.546 0 13.3339 0L2.66719 0C2.45501 0 2.25153 0.0842855 2.1015 0.234315C1.95147 0.384344 1.86719 0.587827 1.86719 0.8C1.86719 1.01217 1.95147 1.21566 2.1015 1.36569C2.25153 1.51571 2.45501 1.6 2.66719 1.6H3.41652V3.62133C3.41533 4.31538 3.58648 4.99886 3.91461 5.61043C4.24273 6.22201 4.71758 6.74255 5.29652 7.12533L6.61652 8L5.29652 8.87467C4.72005 9.25898 4.24782 9.78019 3.92207 10.3917C3.59631 11.0032 3.4272 11.6858 3.42985 12.3787V14.4H2.66719C2.45501 14.4 2.25153 14.4843 2.1015 14.6343C1.95147 14.7843 1.86719 14.9878 1.86719 15.2C1.86719 15.4122 1.95147 15.6157 2.1015 15.7657C2.25153 15.9157 2.45501 16 2.66719 16H13.3339C13.546 16 13.7495 15.9157 13.8995 15.7657C14.0496 15.6157 14.1339 15.4122 14.1339 15.2C14.1339 14.9878 14.0496 14.7843 13.8995 14.6343C13.7495 14.4843 13.546 14.4 13.3339 14.4ZM5.01652 12.3787C5.01608 11.949 5.12203 11.5259 5.3249 11.1471C5.52778 10.7684 5.82127 10.4457 6.17919 10.208L8.06452 8.96L9.94719 10.208C10.3054 10.4456 10.5993 10.7681 10.8026 11.1469C11.006 11.5256 11.1124 11.9488 11.1125 12.3787V14.4H5.01652V12.3787Z" fill="black"/>
</g>
<defs>
<clipPath id="clip0_780_12803">
<rect width="16" height="16" fill="white"/>
</clipPath>
</defs>
</svg>
