<svg fill="none" xmlns="http://www.w3.org/2000/svg" viewBox="0 0 16 16"><path d="M12.667 2H12v-.666c0-.367-.3-.667-.667-.667-.366 0-.666.3-.666.667V2H5.333v-.666c0-.367-.3-.667-.666-.667-.367 0-.667.3-.667.667V2h-.667c-.74 0-1.326.6-1.326 1.334L2 12.667C2 13.4 2.593 14 3.333 14h9.334C13.4 14 14 13.4 14 12.667V3.334C14 2.6 13.4 2 12.667 2ZM12 12.667H4A.669.669 0 0 1 3.333 12V5.334h9.334V12c0 .367-.3.667-.667.667Zm-6.667-6h2c.367 0 .667.3.667.667v2C8 9.7 7.7 10 7.333 10h-2a.669.669 0 0 1-.666-.666v-2c0-.367.3-.667.666-.667Z" fill="#6B7280"/></svg>
