<svg fill="none" xmlns="http://www.w3.org/2000/svg" viewBox="0 0 16 16"><path d="m13.428 12.487-2.162-2.162a4.913 4.913 0 0 0 1.015-2.997 4.92 4.92 0 0 0-1.451-3.502 4.92 4.92 0 0 0-3.503-1.451 4.921 4.921 0 0 0-3.502 1.45 4.96 4.96 0 0 0 0 7.006 4.92 4.92 0 0 0 3.502 1.451c1.098 0 2.139-.36 2.997-1.015l2.162 2.162a.664.664 0 0 0 .942 0 .666.666 0 0 0 0-.942Zm-8.66-2.599a3.625 3.625 0 0 1 0-5.12 3.597 3.597 0 0 1 2.56-1.06c.967 0 1.876.377 2.56 1.06a3.597 3.597 0 0 1 1.06 2.56c0 .968-.377 1.877-1.06 2.56a3.596 3.596 0 0 1-2.56 1.06 3.597 3.597 0 0 1-2.56-1.06Z" fill="#6B7280"/></svg>
