<svg width="16" height="16" viewBox="0 0 16 16" fill="none" xmlns="http://www.w3.org/2000/svg">
<path d="M14.4935 1.88707C14.427 1.60857 14.121 1.41907 13.8435 1.51757C13.8435 1.51757 1.82295 5.76007 1.82095 5.76157C1.63645 5.83007 1.50095 6.00607 1.49095 6.20757C1.48195 6.40107 1.60145 6.60257 1.77795 6.68457L6.43395 8.85807C6.43395 8.85807 8.70245 6.58957 8.70645 6.58557C9.15645 6.13557 9.87495 6.83157 9.41345 7.29257L7.14095 9.56507C7.14095 9.56507 9.31145 14.2161 9.31545 14.2236C9.40395 14.3936 9.57695 14.5016 9.76695 14.5101C9.97345 14.5196 10.1645 14.3616 10.2385 14.1766C10.2385 14.1766 14.4785 2.16307 14.481 2.15557C14.5125 2.06907 14.5145 1.97557 14.4935 1.88707Z" fill="#6B7280"/>
</svg>
