<svg width="10" height="10" viewBox="0 0 10 10" fill="none" xmlns="http://www.w3.org/2000/svg">
<g clip-path="url(#clip0_293_1269)">
<path d="M8.34717 5.00056C8.34717 5.18901 8.49995 5.3418 8.68841 5.3418H9.65863C9.84708 5.3418 9.99987 5.18901 9.99987 5.00056C9.99987 4.81205 9.84708 4.65931 9.65863 4.65931H8.68841C8.49991 4.65931 8.34717 4.8121 8.34717 5.00056Z" fill="black"/>
<path d="M1.65291 5.00056C1.65291 4.81205 1.50013 4.65931 1.31167 4.65931H0.341363C0.152907 4.65931 0.00012207 4.81205 0.00012207 5.00056C0.00012207 5.18901 0.152907 5.3418 0.341363 5.3418H1.31167C1.50013 5.3418 1.65291 5.18901 1.65291 5.00056Z" fill="black"/>
<path d="M7.36665 7.84844L8.05259 8.53475C8.18581 8.66806 8.40188 8.6681 8.53515 8.53488C8.60181 8.46823 8.63516 8.38087 8.63516 8.29351C8.63516 8.2062 8.60185 8.11893 8.53529 8.05228L7.84935 7.36597C7.71613 7.23266 7.50005 7.23262 7.36679 7.36584C7.23347 7.49915 7.23347 7.71518 7.36665 7.84844Z" fill="black"/>
<path d="M2.73297 2.39219C2.73297 2.30487 2.69966 2.21756 2.63305 2.15091L1.94711 1.46469C1.81385 1.33143 1.59782 1.33138 1.46451 1.4646C1.3312 1.59787 1.33115 1.8139 1.46446 1.94721L2.1504 2.63342C2.28362 2.76669 2.4997 2.76673 2.63296 2.63351C2.69966 2.5669 2.73297 2.47954 2.73297 2.39219Z" fill="black"/>
<path d="M5.00005 8.3473C4.8116 8.3473 4.65881 8.50009 4.65881 8.68854V9.65876C4.65881 9.84722 4.8116 10 5.00005 10C5.18851 10 5.3413 9.84722 5.3413 9.65876V8.68854C5.3413 8.50009 5.18851 8.3473 5.00005 8.3473Z" fill="black"/>
<path d="M4.65881 0.340431V1.3111C4.65881 1.4996 4.8116 1.65234 5.00005 1.65234C5.18851 1.65234 5.3413 1.4996 5.3413 1.3111V0.340431C5.3413 0.15193 5.18851 -0.000809908 5.00005 -0.000809908C4.81164 -0.000809908 4.65881 0.15193 4.65881 0.340431Z" fill="black"/>
<path d="M2.63306 7.84985C2.69967 7.78324 2.73297 7.69588 2.73297 7.60857C2.73297 7.52126 2.69967 7.4339 2.63306 7.36729C2.49979 7.23403 2.28372 7.23403 2.15045 7.36729L1.46451 8.05323C1.33125 8.1865 1.33125 8.40257 1.46451 8.53579C1.59778 8.66906 1.81385 8.66906 1.94707 8.53579L2.63306 7.84985Z" fill="black"/>
<path d="M7.36676 2.14983C7.23349 2.28309 7.23345 2.49917 7.36671 2.63243C7.49998 2.76574 7.71605 2.76574 7.84927 2.63248L8.53521 1.94663C8.60187 1.87997 8.63517 1.79266 8.63517 1.7053C8.63517 1.61799 8.60187 1.53063 8.53526 1.46402C8.40199 1.33071 8.18592 1.33071 8.0527 1.46398L7.36676 2.14983Z" fill="black"/>
<path d="M2.34399 5.00035C2.34399 6.46482 3.53552 7.65625 5.00008 7.65625C6.46459 7.65625 7.65607 6.46482 7.65607 5.00035C7.65607 3.53574 6.46459 2.34422 5.00008 2.34422C3.53552 2.34422 2.34399 3.53579 2.34399 5.00035ZM6.97359 5.00035C6.97359 6.0885 6.08827 6.97377 5.00008 6.97377C3.91184 6.97377 3.02648 6.0885 3.02648 5.00035C3.02648 3.91206 3.91184 3.0267 5.00008 3.0267C6.08827 3.0267 6.97359 3.91206 6.97359 5.00035Z" fill="black"/>
</g>
<defs>
<clipPath id="clip0_293_1269">
<rect width="10" height="10" fill="white" transform="matrix(0 -1 1 0 0 10)"/>
</clipPath>
</defs>
</svg>
