<svg width="16" height="16" viewBox="0 0 16 16" fill="none" xmlns="http://www.w3.org/2000/svg">
<path d="M8 0C3.58874 0 0 3.58874 0 8C0 12.4113 3.58874 16 8 16C12.4113 16 16 12.4113 16 8C16 3.58874 12.4113 0 8 0ZM5.51724 13.8385V12.7436C5.51724 12.2872 5.88844 11.916 6.34483 11.916H9.65517C10.1116 11.916 10.4828 12.2872 10.4828 12.7436V13.8385C9.71972 14.1642 8.88066 14.3448 8 14.3448C7.11934 14.3448 6.28028 14.1641 5.51724 13.8385ZM12.1379 12.8038C12.1837 11.4815 11.0391 10.2599 9.65517 10.2609H6.34483C5.01826 10.249 3.83117 11.4167 3.86207 12.8038C2.51222 11.6393 1.65517 9.91834 1.65517 8C1.65517 4.50141 4.50141 1.65517 8 1.65517C11.4986 1.65517 14.3448 4.50141 14.3448 8C14.3448 9.91834 13.4879 11.6393 12.1379 12.8038Z" fill="#6B7280"/>
<path d="M8.00032 3.26758C6.47922 3.26758 5.2417 4.5051 5.2417 6.0262C5.2417 7.5473 6.47922 8.78482 8.00032 8.78482C9.52142 8.78482 10.7589 7.5473 10.7589 6.0262C10.7589 4.5051 9.52142 3.26758 8.00032 3.26758ZM8.00032 7.12965C7.39188 7.12965 6.89687 6.63464 6.89687 6.0262C6.89687 5.41776 7.39188 4.92275 8.00032 4.92275C8.60876 4.92275 9.10377 5.41776 9.10377 6.0262C9.10377 6.63464 8.60876 7.12965 8.00032 7.12965Z" fill="#6B7280"/>
</svg>
