<svg width="24" height="24" viewBox="0 0 24 24" fill="none" xmlns="http://www.w3.org/2000/svg">
<g clip-path="url(#clip0_776_13724)">
<path d="M23.6949 4.97406C23.616 4.72394 23.412 4.53406 23.157 4.47198C22.903 4.40991 22.634 4.48499 22.4489 4.66992L19.281 7.83691L16.856 7.14294L16.162 4.71808L19.3301 1.54999C19.5159 1.36505 19.5901 1.09607 19.528 0.841919C19.4659 0.587036 19.2761 0.383972 19.0259 0.303955C18.386 0.103088 17.705 0 17.0001 0C13.14 0 9.99994 3.14008 9.99994 6.99994C9.99994 7.81696 10.1371 8.60596 10.4081 9.35193L0.880005 18.88C0.312012 19.4471 0 20.2 0 21C0 21.8 0.312012 22.5529 0.880005 23.12C1.44708 23.688 2.20001 24 3 24C3.79999 24 4.55292 23.688 5.12 23.12L14.6481 13.5919C15.394 13.8629 16.183 14.0001 17.0001 14.0001C20.8599 14.0001 24 10.86 24 6.99994C24 6.29498 23.8969 5.61401 23.6949 4.97406Z" fill="black"/>
</g>
<defs>
<clipPath id="clip0_776_13724">
<rect width="24" height="24" fill="white"/>
</clipPath>
</defs>
</svg>
